<?xml version="1.0" standalone="no"?>
<!DOCTYPE svg PUBLIC "-//W3C//DTD SVG 20010904//EN"
 "http://www.w3.org/TR/2001/REC-SVG-20010904/DTD/svg10.dtd">
<svg version="1.0" xmlns="http://www.w3.org/2000/svg"
 width="3296.000000pt" height="816.000000pt" viewBox="0 0 3296.000000 816.000000"
 preserveAspectRatio="xMidYMid meet">

<g transform="translate(0.000000,816.000000) scale(0.100000,-0.100000)"
fill="#000000" stroke="none">
<path d="M30948 8149 c-720 -70 -1340 -563 -1568 -1247 -129 -387 -129 -787 0
-1174 107 -321 300 -604 561 -823 687 -575 1678 -575 2368 0 316 263 531 625
623 1045 20 94 23 131 23 365 0 293 -10 362 -85 586 -269 808 -1072 1330
-1922 1248z m1047 -954 c102 -27 198 -103 245 -194 11 -22 25 -71 32 -109 10
-59 9 -79 -5 -137 -9 -38 -30 -89 -47 -114 -16 -25 -280 -296 -587 -602 -601
-599 -591 -590 -719 -612 -71 -12 -170 7 -236 46 -21 12 -175 159 -342 326
-357 356 -361 362 -361 516 0 78 4 98 29 153 70 152 246 244 404 211 101 -20
148 -52 307 -210 l150 -148 410 408 c428 426 456 450 559 471 64 12 97 11 161
-5z"/>
<path d="M5930 4890 l0 -3260 320 0 320 0 2 1109 3 1109 1240 -1108 1240
-1109 450 0 c426 0 449 1 430 17 -176 148 -2854 2566 -2850 2573 4 5 613 536
1356 1179 742 644 1349 1173 1349 1175 0 3 -208 5 -462 5 l-463 0 -1145 -997
-1145 -997 -3 1782 -2 1782 -320 0 -320 0 0 -3260z"/>
<path d="M15450 4890 l0 -3260 320 0 320 0 2 1111 3 1111 1244 -1111 1244
-1111 446 0 446 0 -35 34 c-19 18 -658 593 -1420 1276 -762 683 -1393 1250
-1403 1259 -17 16 55 80 1335 1190 744 645 1355 1177 1356 1182 2 5 -195 9
-457 9 l-460 0 -1148 -999 -1148 -998 -3 1783 -2 1784 -320 0 -320 0 0 -3260z"/>
<path d="M2278 6690 c-631 -72 -1170 -350 -1601 -825 -371 -411 -578 -849
-654 -1385 -24 -172 -24 -565 0 -740 44 -315 140 -621 273 -870 60 -111 194
-313 281 -420 155 -193 403 -418 613 -556 496 -325 1112 -455 1730 -364 248
36 457 100 677 205 170 81 278 147 428 259 119 90 388 344 455 430 19 25 38
45 43 46 4 0 7 -189 7 -420 l0 -420 310 0 310 0 0 2475 0 2475 -310 0 -310 0
-2 -455 -3 -454 -75 97 c-97 125 -301 335 -415 427 -312 250 -645 401 -1045
472 -124 21 -181 26 -390 28 -135 2 -280 0 -322 -5z m662 -625 c546 -91 999
-389 1310 -861 327 -496 410 -1200 213 -1805 -47 -145 -163 -377 -250 -499
-180 -250 -432 -460 -728 -605 -312 -152 -595 -213 -945 -202 -181 6 -275 19
-434 61 -379 101 -745 341 -999 656 -180 223 -331 528 -402 810 -56 223 -72
520 -39 751 46 335 181 662 390 945 311 422 802 703 1335 763 117 13 435 5
549 -14z"/>
<path d="M11764 6684 c-445 -54 -827 -207 -1189 -478 -159 -119 -422 -382
-543 -543 -370 -495 -528 -1032 -501 -1698 8 -193 32 -353 79 -541 48 -189 93
-311 181 -490 272 -556 796 -1045 1353 -1263 612 -240 1345 -223 1937 43 309
140 618 369 862 641 l102 114 3 -419 2 -420 315 0 315 0 0 2475 0 2475 -312
-2 -313 -3 -3 -453 -2 -453 -56 73 c-244 322 -533 565 -869 729 -230 112 -473
183 -741 214 -157 18 -466 18 -620 -1z m726 -624 c389 -68 707 -231 994 -509
182 -177 294 -328 396 -531 144 -286 210 -584 210 -940 0 -91 -5 -205 -10
-255 -68 -608 -382 -1116 -882 -1427 -518 -322 -1142 -397 -1697 -203 -413
144 -778 439 -1013 818 -431 694 -421 1524 26 2207 198 301 452 523 778 680
201 96 372 146 598 176 151 19 439 12 600 -16z"/>
<path d="M21350 6685 c-783 -89 -1459 -460 -1892 -1039 -263 -352 -429 -742
-500 -1176 -30 -183 -33 -612 -5 -790 42 -267 110 -486 222 -715 225 -459 592
-846 1055 -1113 501 -287 1155 -404 1829 -327 768 89 1410 436 1822 985 44 57
79 107 79 111 0 7 -488 329 -499 329 -4 0 -30 -28 -58 -62 -81 -100 -279 -288
-389 -370 -308 -228 -598 -347 -1004 -410 -128 -20 -566 -17 -699 5 -787 128
-1382 622 -1631 1352 -191 561 -119 1214 186 1683 311 479 775 798 1317 906
173 35 291 46 494 46 710 0 1273 -253 1701 -765 42 -49 80 -90 86 -90 15 0
496 298 496 307 0 13 -130 199 -192 276 -359 439 -932 735 -1633 844 -173 27
-601 34 -785 13z"/>
<path d="M26515 6689 c-585 -60 -1092 -304 -1482 -713 -406 -424 -647 -912
-734 -1486 -27 -174 -32 -559 -10 -725 68 -524 258 -965 598 -1388 308 -382
665 -624 1125 -763 455 -136 1078 -148 1549 -29 602 153 1101 518 1462 1070
80 123 188 316 184 329 -2 6 -120 72 -263 147 -235 125 -260 136 -272 121 -7
-9 -57 -85 -111 -167 -185 -284 -364 -484 -551 -618 -121 -86 -380 -215 -535
-266 -260 -86 -474 -117 -754 -108 -421 13 -763 137 -1078 393 -425 346 -682
866 -710 1442 l-6 122 2226 0 2227 0 0 48 c0 80 -20 311 -36 422 -41 282 -124
552 -244 795 -130 264 -269 454 -495 680 -402 402 -881 627 -1475 690 -145 16
-481 18 -615 4z m545 -609 c419 -52 826 -241 1109 -514 189 -183 322 -396 424
-681 30 -83 87 -267 87 -281 0 -2 -830 -4 -1845 -4 -1015 0 -1845 2 -1845 5 0
3 14 49 31 102 132 412 328 732 579 946 276 234 606 381 960 426 95 12 402 13
500 1z"/>
<path d="M20944 827 c-153 -249 -306 -498 -340 -554 l-63 -101 207 -82 c114
-45 220 -83 236 -83 27 -2 59 36 448 527 230 291 416 531 414 533 -2 2 -143
50 -314 107 l-311 104 -277 -451z"/>
</g>
</svg>
